<svg width="76" height="76" viewBox="0 0 76 76" fill="none" xmlns="http://www.w3.org/2000/svg">
<path d="M62.5811 60.8776C62.1983 61.2607 61.6887 61.4717 61.1466 61.4717C60.6045 61.4717 60.0951 61.2607 59.7112 60.8767C58.7632 59.9295 57.6956 58.8617 56.7477 57.9135C56.3642 57.5298 56.153 57.0202 56.153 56.4784C56.153 55.9424 56.3589 55.4389 56.7331 55.0581C56.7381 55.0531 56.743 55.0483 56.748 55.0434C57.1309 54.6602 57.6404 54.4492 58.1824 54.4492C58.7246 54.4492 59.2341 54.6602 59.6171 55.0434C60.565 55.9906 61.6335 57.059 62.5814 58.0074C62.965 58.3911 63.1762 58.9007 63.1762 59.4424C63.1762 59.9841 62.9649 60.4937 62.5811 60.8776ZM32.8715 49.0429C27.9434 44.1145 27.9434 36.0956 32.8715 31.1672C35.2571 28.7815 38.4313 27.4677 41.8095 27.4677C45.1875 27.4677 48.3618 28.7815 50.7474 31.1672C55.6757 36.0956 55.6757 44.1145 50.7474 49.0429C48.3618 51.4285 45.1875 52.7424 41.8095 52.7424C38.4313 52.7424 35.2571 51.4285 32.8715 49.0429ZM30.4463 19.5651C29.0576 19.5651 27.9279 18.4355 27.9279 17.0467C27.9279 15.658 29.0576 14.5282 30.4463 14.5282C31.8351 14.5282 32.9649 15.658 32.9649 17.0467C32.9649 18.4355 31.8351 19.5651 30.4463 19.5651ZM15.3409 40.9956C13.952 40.9956 12.8222 39.8659 12.8222 38.4771C12.8222 37.0885 13.952 35.9587 15.3409 35.9587C16.7295 35.9587 17.8594 37.0885 17.8594 38.4771C17.8594 39.8659 16.7295 40.9956 15.3409 40.9956ZM60.6575 22.7876C62.0462 22.7876 63.1762 23.9174 63.1762 25.306C63.1762 26.6954 62.0462 27.8256 60.6575 27.8256C59.2688 27.8256 58.1389 26.6954 58.1389 25.306C58.1389 23.9174 59.2688 22.7876 60.6575 22.7876ZM62.0539 52.6078C61.0201 51.5736 59.6453 51.0039 58.1824 51.0039C57.356 51.0039 56.5579 51.1863 55.8332 51.5311L54.4076 50.1058C58.637 44.7858 59.0096 37.3869 55.5254 31.7005L57.187 30.1523C58.1654 30.8553 59.3636 31.2709 60.6575 31.2709C63.9459 31.2709 66.6214 28.5951 66.6214 25.306C66.6214 22.0177 63.9459 19.3424 60.6575 19.3424C57.3691 19.3424 54.6937 22.0177 54.6937 25.306C54.6937 26.0461 54.8301 26.7545 55.0776 27.4089L53.4096 28.9629C53.335 28.8852 53.2601 28.8075 53.1835 28.731C50.1473 25.6947 46.1078 24.0225 41.8095 24.0225C41.2049 24.0225 40.6057 24.0567 40.0135 24.122L35.8863 19.486C36.2218 18.7408 36.4101 17.9156 36.4101 17.0467C36.4101 13.7583 33.7348 11.083 30.4463 11.083C27.1579 11.083 24.4826 13.7583 24.4826 17.0467C24.4826 18.2903 24.8656 19.4457 25.5192 20.4023L16.8306 32.7019C16.3542 32.5789 15.855 32.5134 15.3409 32.5134C12.0523 32.5134 9.37695 35.1888 9.37695 38.4771C9.37695 41.7656 12.0523 44.4408 15.3409 44.4408C18.6292 44.4408 21.3047 41.7656 21.3047 38.4771C21.3047 36.9499 20.7268 35.5552 19.7791 34.499L28.2049 22.5717C28.8974 22.8536 29.6537 23.0104 30.4463 23.0104C31.6052 23.0104 32.687 22.6771 33.6033 22.1029L36.2024 25.0224C34.0609 25.8164 32.0976 27.0687 30.4354 28.731C24.1641 35.0026 24.164 45.2074 30.4354 51.479C33.4717 54.5154 37.5111 56.1876 41.8095 56.1876C45.5665 56.1876 49.1256 54.9099 51.9901 52.5605L53.3432 53.9132C52.9281 54.6937 52.7077 55.5689 52.7077 56.4784C52.7077 57.9401 53.2771 59.3147 54.311 60.349C55.2595 61.2979 56.3276 62.3662 57.2753 63.313C58.3091 64.3473 59.684 64.9169 61.1466 64.9169C62.6093 64.9169 63.9843 64.3473 65.0182 63.313C66.052 62.2787 66.6214 60.9041 66.6214 59.4424C66.6214 57.9808 66.052 56.6062 65.0182 55.5718C64.0701 54.6233 63.0022 53.5554 62.0539 52.6078Z" fill="#09AFF4"/>
<path d="M48.8569 35.9763C47.9056 35.9763 47.1343 36.7475 47.1343 37.6989V41.9652C47.1343 42.9166 47.9056 43.6878 48.8569 43.6878C49.8082 43.6878 50.5795 42.9166 50.5795 41.9652V37.6989C50.5795 36.7475 49.8082 35.9763 48.8569 35.9763Z" fill="#09AFF4"/>
<path d="M35.4629 35.9372C34.5116 35.9372 33.7403 36.7085 33.7403 37.6598V42.0042C33.7403 42.9556 34.5116 43.7268 35.4629 43.7268C36.4143 43.7268 37.1855 42.9556 37.1855 42.0042V37.6598C37.1855 36.7085 36.4143 35.9372 35.4629 35.9372Z" fill="#09AFF4"/>
<path d="M42.1597 32.7699C41.2084 32.7699 40.4371 33.5412 40.4371 34.4925V45.1715C40.4371 46.1229 41.2084 46.8941 42.1597 46.8941C43.1111 46.8941 43.8823 46.1229 43.8823 45.1715V34.4925C43.8823 33.5412 43.1111 32.7699 42.1597 32.7699Z" fill="#09AFF4"/>
</svg>
