<svg width="76" height="76" viewBox="0 0 76 76" fill="none" xmlns="http://www.w3.org/2000/svg">
<path d="M47.5 28.5V17.4167C47.5 16.5768 47.1664 15.7714 46.5725 15.1775C45.9786 14.5836 45.1732 14.25 44.3333 14.25H22.1667C21.3268 14.25 20.5214 14.5836 19.9275 15.1775C19.3336 15.7714 19 16.5768 19 17.4167V58.5833C19 59.4232 19.3336 60.2286 19.9275 60.8225C20.5214 61.4164 21.3268 61.75 22.1667 61.75H28.5M39.5833 14.25V17.4167C39.5833 18.2565 39.2497 19.062 38.6558 19.6558C38.062 20.2497 37.2565 20.5833 36.4167 20.5833H30.0833C29.2435 20.5833 28.438 20.2497 27.8442 19.6558C27.2503 19.062 26.9167 18.2565 26.9167 17.4167V14.25M52.25 47.5C52.25 52.7467 47.9967 57 42.75 57M52.25 47.5C52.25 42.2533 47.9967 38 42.75 38M52.25 47.5H57M42.75 57C37.5033 57 33.25 52.7467 33.25 47.5M42.75 57V61.75M33.25 47.5C33.25 42.2533 37.5033 38 42.75 38M33.25 47.5H28.5M42.75 38V33.25M49.4633 54.2133L52.82 57.57M32.68 37.43L36.0367 40.7867M49.4633 40.7867L52.82 37.43M32.68 57.57L36.0367 54.2133M45.9167 47.5C45.9167 49.2489 44.4989 50.6667 42.75 50.6667C41.0011 50.6667 39.5833 49.2489 39.5833 47.5C39.5833 45.7511 41.0011 44.3333 42.75 44.3333C44.4989 44.3333 45.9167 45.7511 45.9167 47.5Z" stroke="#09AFF4" stroke-width="2" stroke-linecap="round" stroke-linejoin="round"/>
</svg>
