<svg width="64" height="64" viewBox="0 0 64 64" fill="none" xmlns="http://www.w3.org/2000/svg">
<g clip-path="url(#clip0_2054_7230)">
<path d="M37.334 8V18.6667C37.334 19.3739 37.6149 20.0522 38.115 20.5523C38.6151 21.0524 39.2934 21.3333 40.0007 21.3333H50.6673" stroke="#09AFF4" stroke-width="2" stroke-linecap="round" stroke-linejoin="round"/>
<path d="M45.334 56H18.6673C17.2528 56 15.8963 55.4381 14.8961 54.4379C13.8959 53.4377 13.334 52.0812 13.334 50.6667V13.3333C13.334 11.9188 13.8959 10.5623 14.8961 9.5621C15.8963 8.5619 17.2528 8 18.6673 8H37.334L50.6673 21.3333V50.6667C50.6673 52.0812 50.1054 53.4377 49.1052 54.4379C48.105 55.4381 46.7485 56 45.334 56Z" stroke="#09AFF4" stroke-width="2" stroke-linecap="round" stroke-linejoin="round"/>
<path d="M24 24H26.6667" stroke="#09AFF4" stroke-width="2" stroke-linecap="round" stroke-linejoin="round"/>
<path d="M24 34.667H40" stroke="#09AFF4" stroke-width="2" stroke-linecap="round" stroke-linejoin="round"/>
<path d="M24 45.333H40" stroke="#09AFF4" stroke-width="2" stroke-linecap="round" stroke-linejoin="round"/>
</g>
<defs>
<clipPath id="clip0_2054_7230">
<rect width="64" height="64" fill="white"/>
</clipPath>
</defs>
</svg>
