<svg width="76" height="76" viewBox="0 0 76 76" fill="none" xmlns="http://www.w3.org/2000/svg">
<path d="M39.2109 47.0404C34.4198 47.0404 30.522 43.1425 30.522 38.3514C30.522 33.5603 34.4198 29.6624 39.2109 29.6624C44.002 29.6624 47.8998 33.5603 47.8998 38.3514C47.8998 43.1425 44.002 47.0404 39.2109 47.0404ZM23.2612 62.1595C20.6328 62.1595 18.4944 60.0212 18.4944 57.3928C18.4944 54.7644 20.6328 52.626 23.2612 52.626C25.8896 52.626 28.0279 54.7644 28.0279 57.3928C28.0279 60.0212 25.8896 62.1595 23.2612 62.1595ZM14.291 19.5591C14.291 16.4055 16.8567 13.8399 20.0103 13.8399C23.1633 13.8399 25.7285 16.4055 25.7285 19.5591C25.7285 22.7121 23.1633 25.2773 20.0103 25.2773C16.8567 25.2773 14.291 22.7121 14.291 19.5591ZM58.3452 23.5145C60.2014 23.5145 61.7115 25.0246 61.7115 26.8808C61.7115 28.7376 60.2014 30.2482 58.3452 30.2482C56.4884 30.2482 54.9778 28.7376 54.9778 26.8808C54.9778 25.0246 56.4884 23.5145 58.3452 23.5145ZM53.5923 31.4161C54.7904 32.6711 56.4775 33.4553 58.3452 33.4553C61.9699 33.4553 64.9186 30.506 64.9186 26.8808C64.9186 23.2562 61.9699 20.3074 58.3452 20.3074C54.7201 20.3074 51.7707 23.2562 51.7707 26.8808C51.7707 27.4825 51.8537 28.0649 52.0057 28.6189L48.5211 30.9551C46.3399 28.2151 42.9772 26.4554 39.2109 26.4554C36.4055 26.4554 33.8244 27.4321 31.7881 29.0625L27.0819 24.9953C28.2427 23.4887 28.9355 21.6038 28.9355 19.5591C28.9355 14.6371 24.9317 10.6328 20.0103 10.6328C15.0883 10.6328 11.084 14.6371 11.084 19.5591C11.084 24.4805 15.0883 28.4844 20.0103 28.4844C21.722 28.4844 23.3221 27.999 24.6821 27.1601L29.573 31.3867C28.1532 33.3458 27.3149 35.7524 27.3149 38.3514C27.3149 41.3416 28.4242 44.0773 30.2523 46.1695L26.9811 50.3429C25.8697 49.7541 24.6041 49.419 23.2612 49.419C18.8644 49.419 15.2874 52.996 15.2874 57.3928C15.2874 61.7895 18.8644 65.3666 23.2612 65.3666C27.6579 65.3666 31.235 61.7895 31.235 57.3928C31.235 55.4958 30.5679 53.7522 29.4577 52.382L32.6706 48.283C34.5485 49.5238 36.7966 50.2474 39.2109 50.2474C45.7703 50.2474 51.1069 44.9109 51.1069 38.3514C51.1069 36.707 50.7714 35.1395 50.1655 33.7137L53.5923 31.4161Z" fill="#09AFF4"/>
<path d="M58.6414 60.2396C56.9479 60.2396 55.5702 58.8618 55.5702 57.1683C55.5702 55.4754 56.9479 54.098 58.6414 54.098C60.3343 54.098 61.7117 55.4754 61.7117 57.1683C61.7117 58.8618 60.3343 60.2396 58.6414 60.2396ZM58.6414 50.891C55.1795 50.891 52.3631 53.707 52.3631 57.1683C52.3631 60.6302 55.1795 63.4466 58.6414 63.4466C62.1027 63.4466 64.9187 60.6302 64.9187 57.1683C64.9187 53.707 62.1027 50.891 58.6414 50.891Z" fill="#09AFF4"/>
</svg>
