<svg width="48" height="48" viewBox="0 0 48 48" fill="none" xmlns="http://www.w3.org/2000/svg">
<g clip-path="url(#clip0_2054_7286)">
<path d="M32 10L38 16L34 18L42 26L36 28L44 36H26" stroke="#09AFF4" stroke-width="2" stroke-linecap="round" stroke-linejoin="round"/>
<path d="M30 42V36" stroke="#09AFF4" stroke-width="2" stroke-linecap="round" stroke-linejoin="round"/>
<path d="M16 26L12 22" stroke="#09AFF4" stroke-width="2" stroke-linecap="round" stroke-linejoin="round"/>
<path d="M16 24L20 20" stroke="#09AFF4" stroke-width="2" stroke-linecap="round" stroke-linejoin="round"/>
<path d="M16 42V16" stroke="#09AFF4" stroke-width="2" stroke-linecap="round" stroke-linejoin="round"/>
<path d="M11.6472 31.9901C10.7722 31.9389 9.91898 31.6965 9.14765 31.2801C8.37632 30.8637 7.70559 30.2834 7.18265 29.5799C6.65971 28.8764 6.29726 28.0669 6.1208 27.2083C5.94433 26.3497 5.95814 25.4628 6.16125 24.6101C5.43541 24.0068 4.86226 23.2406 4.48842 22.374C4.11459 21.5073 3.95062 20.5647 4.00987 19.6227C4.06913 18.6807 4.34992 17.766 4.82941 16.953C5.30889 16.1401 5.97353 15.4518 6.76925 14.9441C6.07199 13.7054 5.83715 12.2594 6.10657 10.8637C6.37599 9.46806 7.13217 8.21336 8.24038 7.32319C9.34858 6.43302 10.7368 5.96521 12.1578 6.00311C13.5787 6.04101 14.9401 6.58215 15.9992 7.53013C17.0587 6.58365 18.4196 6.04379 19.8397 6.00663C21.2599 5.96947 22.6471 6.43741 23.7546 7.32719C24.8621 8.21696 25.6179 9.47083 25.8876 10.8656C26.1572 12.2604 25.9233 13.7057 25.2272 14.9441C26.0234 15.4513 26.6886 16.1394 27.1685 16.9523C27.6485 17.7652 27.9296 18.6799 27.9891 19.6221C28.0485 20.5642 27.8846 21.5071 27.5107 22.3739C27.1367 23.2407 26.5634 24.0069 25.8372 24.6101C26.0472 25.4917 26.0547 26.4094 25.8592 27.2943C25.6638 28.1792 25.2704 29.0084 24.7086 29.7195C24.1468 30.4306 23.4313 31.0052 22.6156 31.4002C21.8 31.7952 20.9055 32.0003 19.9992 32.0001H11.9992L11.6472 31.9901Z" stroke="#09AFF4" stroke-width="2" stroke-linecap="round" stroke-linejoin="round"/>
</g>
<defs>
<clipPath id="clip0_2054_7286">
<rect width="48" height="48" fill="white"/>
</clipPath>
</defs>
</svg>
