<svg width="48" height="48" viewBox="0 0 48 48" fill="none" xmlns="http://www.w3.org/2000/svg">
<g clip-path="url(#clip0_2054_7267)">
<path d="M24 26L20 22" stroke="white" stroke-width="2" stroke-linecap="round" stroke-linejoin="round"/>
<path d="M24 24L28 20" stroke="white" stroke-width="2" stroke-linecap="round" stroke-linejoin="round"/>
<path d="M24 42V16" stroke="white" stroke-width="2" stroke-linecap="round" stroke-linejoin="round"/>
<path d="M17.1477 31.2801C17.919 31.6965 18.7722 31.9389 19.6472 31.9901L19.9992 32.0001H27.9992C28.9055 32.0003 29.8 31.7952 30.6156 31.4002C31.4313 31.0052 32.1468 30.4306 32.7086 29.7195C33.2704 29.0084 33.6638 28.1792 33.8592 27.2943C34.0547 26.4094 34.0472 25.4917 33.8372 24.6101C34.5634 24.0069 35.1367 23.2407 35.5107 22.3739C35.8846 21.5071 36.0485 20.5642 35.9891 19.6221C35.9296 18.6799 35.6485 17.7652 35.1685 16.9523C34.6886 16.1394 34.0234 15.4513 33.2272 14.9441C33.9233 13.7057 34.1572 12.2604 33.8876 10.8656C33.6179 9.47083 32.8621 8.21696 31.7546 7.32719C30.6471 6.43741 29.2598 5.96947 27.8397 6.00663C26.4196 6.04379 25.0587 6.58365 23.9992 7.53013C22.9401 6.58215 21.5787 6.04101 20.1578 6.00311C18.7368 5.96521 17.3486 6.43302 16.2404 7.32319C15.1322 8.21336 14.376 9.46806 14.1066 10.8637C13.8371 12.2594 14.072 13.7054 14.7692 14.9441C13.9735 15.4518 13.3089 16.1401 12.8294 16.953C12.3499 17.766 12.0691 18.6807 12.0099 19.6227C11.9506 20.5647 12.1146 21.5073 12.4884 22.374C12.8623 23.2406 13.4354 24.0068 14.1612 24.6101C13.9581 25.4628 13.9443 26.3497 14.1208 27.2083C14.2973 28.0669 14.6597 28.8764 15.1827 29.5799C15.7056 30.2834 16.3763 30.8637 17.1477 31.2801Z" stroke="white" stroke-width="2" stroke-linecap="round" stroke-linejoin="round"/>
</g>
<defs>
<clipPath id="clip0_2054_7267">
<rect width="48" height="48" fill="white"/>
</clipPath>
</defs>
</svg>
