<svg width="76" height="76" viewBox="0 0 76 76" fill="none" xmlns="http://www.w3.org/2000/svg">
<path d="M13.7386 11.7987H11.7977V13.7396H13.7386V11.7987Z" fill="#09AFF4"/>
<path d="M17.6203 11.7987H15.6795V13.7396H17.6203V11.7987Z" fill="#09AFF4"/>
<path d="M21.502 11.7987H19.5612V13.7396H21.502V11.7987Z" fill="#09AFF4"/>
<path d="M68.0827 21.503H62.2601V7.91699H7.91602V54.4976H15.6795V60.3202H37.0289V68.0837H64.201V60.3202H68.0827V21.503ZM66.1418 29.2665H17.6203V23.4439H66.1418V29.2665ZM60.3192 9.85785V15.6804H9.85688V9.85785H60.3192ZM9.85688 52.5568V17.6213H60.3192V21.503H15.6795V52.5568H9.85688ZM44.7924 46.7342H37.0289V54.4976H21.502V37.0299H44.7924V46.7342ZM62.2601 66.1428H38.9698V48.6751H62.2601V66.1428ZM64.201 58.3794V46.7342H46.7332V35.089H19.5612V56.4385H37.0289V58.3794H17.6203V31.2073H66.1418V58.3794H64.201Z" fill="#09AFF4"/>
<path d="M21.502 25.3847H19.5612V27.3256H21.502V25.3847Z" fill="#09AFF4"/>
<path d="M25.3838 25.3847H23.4429V27.3256H25.3838V25.3847Z" fill="#09AFF4"/>
<path d="M29.2655 25.3847H27.3246V27.3256H29.2655V25.3847Z" fill="#09AFF4"/>
<path d="M42.8515 38.9708H23.4429V40.9116H42.8515V38.9708Z" fill="#09AFF4"/>
<path d="M42.8515 42.8525H23.4429V44.7933H42.8515V42.8525Z" fill="#09AFF4"/>
<path d="M35.0881 46.7342H23.4429V48.6751H35.0881V46.7342Z" fill="#09AFF4"/>
<path d="M35.0881 50.6159H23.4429V52.5568H35.0881V50.6159Z" fill="#09AFF4"/>
<path d="M60.3192 50.6159H40.9106V52.5568H60.3192V50.6159Z" fill="#09AFF4"/>
<path d="M60.3192 54.4976H40.9106V56.4385H60.3192V54.4976Z" fill="#09AFF4"/>
<path d="M60.3192 58.3794H40.9106V60.3202H60.3192V58.3794Z" fill="#09AFF4"/>
<path d="M60.3192 62.2611H58.3784V64.2019H60.3192V62.2611Z" fill="#09AFF4"/>
<path d="M56.4375 62.2611H40.9106V64.2019H56.4375V62.2611Z" fill="#09AFF4"/>
</svg>
