<svg width="76" height="76" viewBox="0 0 76 76" fill="none" xmlns="http://www.w3.org/2000/svg">
<path d="M50.8113 50.8122C51.0173 50.6062 51.2538 50.4457 51.5004 50.3072L47.6564 46.4616C47.3271 46.1323 46.7917 46.1323 46.4624 46.4616C46.1331 46.7927 46.1331 47.3264 46.4624 47.6574L50.2979 51.4928C50.4431 51.2513 50.6052 51.0166 50.8113 50.8122Z" fill="#09AFF4"/>
<path d="M59.1105 63.3336C57.984 63.3336 56.9233 62.8945 56.1245 62.0974L50.2134 56.1863C49.4162 55.3874 48.9771 54.3285 48.9771 53.2003C48.9771 52.0721 49.4162 51.0132 50.2134 50.2144C51.7435 48.6842 54.6535 48.6842 56.1836 50.2144L62.0947 56.1255C62.8936 56.9243 63.3327 57.9832 63.3327 59.1114C63.3327 60.2396 62.8936 61.2985 62.0964 62.0974C61.2993 62.8962 60.2369 63.3336 59.1105 63.3336ZM53.1993 50.7008C52.512 50.7008 51.8601 50.9575 51.4074 51.4101C50.9295 51.888 50.666 52.5248 50.666 53.2003C50.666 53.8759 50.9295 54.5126 51.4074 54.9922L57.3185 60.9033C58.2761 61.8592 59.9431 61.8592 60.9007 60.9033C61.3803 60.4237 61.6438 59.787 61.6438 59.1114C61.6438 58.4359 61.3803 57.7992 60.9024 57.3195L54.9913 51.4084C54.5386 50.9575 53.8867 50.7008 53.1993 50.7008Z" fill="#09AFF4"/>
<path d="M32.9327 48.8936C32.4665 48.8936 32.0882 48.5153 32.0882 48.0492C32.0882 47.5831 32.4665 47.2047 32.9327 47.2047C39.2947 47.2047 44.814 43.1447 46.6684 37.1035C46.8052 36.6576 47.2781 36.4026 47.724 36.5445C48.1698 36.6813 48.4215 37.1525 48.2847 37.5983C46.209 44.3556 40.0412 48.8936 32.9327 48.8936Z" fill="#09AFF4"/>
<path d="M32.9327 53.2003C21.7573 53.2003 12.666 44.109 12.666 32.9337C12.666 21.7583 21.7573 12.667 32.9327 12.667C44.1081 12.667 53.1994 21.7583 53.1994 32.9337C53.1994 44.109 44.1081 53.2003 32.9327 53.2003ZM32.9327 14.3559C22.6896 14.3559 14.3549 22.6905 14.3549 32.9337C14.3549 43.1768 22.6896 51.5114 32.9327 51.5114C43.1758 51.5114 51.5105 43.1768 51.5105 32.9337C51.5105 22.6905 43.1758 14.3559 32.9327 14.3559Z" fill="#09AFF4"/>
<path d="M48.1327 33.7781C48.5991 33.7781 48.9771 33.4 48.9771 32.9337C48.9771 32.4673 48.5991 32.0892 48.1327 32.0892C47.6663 32.0892 47.2882 32.4673 47.2882 32.9337C47.2882 33.4 47.6663 33.7781 48.1327 33.7781Z" fill="#09AFF4"/>
</svg>
