<svg width="26" height="26" viewBox="0 0 26 26" fill="none" xmlns="http://www.w3.org/2000/svg">
<path d="M13 12.6673C11.9573 12.6673 11.0647 12.2961 10.3223 11.5537C9.57965 10.811 9.20833 9.91836 9.20833 8.87565C9.20833 7.83294 9.57965 6.94037 10.3223 6.19792C11.0647 5.4553 11.9573 5.08398 13 5.08398C14.0427 5.08398 14.9353 5.4553 15.6777 6.19792C16.4204 6.94037 16.7917 7.83294 16.7917 8.87565C16.7917 9.91836 16.4204 10.811 15.6777 11.5537C14.9353 12.2961 14.0427 12.6673 13 12.6673ZM4.875 20.9174V18.5089C4.875 17.9784 5.01908 17.4872 5.30725 17.035C5.59542 16.5829 5.98054 16.2354 6.46262 15.9923C7.53332 15.4675 8.61349 15.0738 9.70315 14.8112C10.7928 14.5487 11.8918 14.4174 13 14.4174C14.1082 14.4174 15.2072 14.5487 16.2969 14.8112C17.3865 15.0738 18.4667 15.4675 19.5374 15.9923C20.0195 16.2354 20.4046 16.5829 20.6927 17.035C20.9809 17.4872 21.125 17.9784 21.125 18.5089V20.9174H4.875ZM6.5 19.2924H19.5V18.5089C19.5 18.2895 19.4364 18.0864 19.3093 17.8995C19.1822 17.7129 19.0097 17.5605 18.7918 17.4424C17.8583 16.9827 16.9066 16.6344 15.9366 16.3975C14.9665 16.1608 13.9876 16.0424 13 16.0424C12.0124 16.0424 11.0335 16.1608 10.0634 16.3975C9.09341 16.6344 8.1417 16.9827 7.20823 17.4424C6.9903 17.5605 6.81778 17.7129 6.69067 17.8995C6.56356 18.0864 6.5 18.2895 6.5 18.5089V19.2924ZM13 11.0423C13.5958 11.0423 14.1059 10.8302 14.5302 10.4059C14.9545 9.98155 15.1667 9.47148 15.1667 8.87565C15.1667 8.27982 14.9545 7.76975 14.5302 7.34544C14.1059 6.92114 13.5958 6.70898 13 6.70898C12.4042 6.70898 11.8941 6.92114 11.4698 7.34544C11.0455 7.76975 10.8333 8.27982 10.8333 8.87565C10.8333 9.47148 11.0455 9.98155 11.4698 10.4059C11.8941 10.8302 12.4042 11.0423 13 11.0423Z" fill="#09AFF4"/>
</svg>
